<svg id="SVGRoot" width="19px" height="19px" version="1.1" viewBox="0 0 19 19" xmlns="http://www.w3.org/2000/svg">
 <g>
  <rect x=".38564" y=".3736" width="18.306" height="18.336" fill="#008000" stroke="#1b571f" stroke-linecap="round" stroke-linejoin="round" stroke-width=".70839"/>
 </g>
 <g display="none">
  <rect x=".51172" y=".49843" width="18.06" height="18.093" fill="#008000"/>
 </g>
 <g display="none">
  <path d="m11.743 13.053c0.03596-0.1537-0.01971-0.18078-0.12784-0.28072-0.43365-0.40075-0.23215-0.26855-0.54175-0.44802-0.06178-0.01524-0.12206-0.03887-0.18531-0.04574-0.28783-0.03123-0.60349 0.0769-0.81471 0.27385-0.05564 0.05188-0.09747 0.11681-0.14622 0.17522-0.02601 0.07318-0.066 0.1428-0.078 0.21952-0.04514 0.28854 0.11396 0.56452 0.24715 0.80493 0.05919 0.10682 0.12457 0.21011 0.18686 0.31516 0.06255 0.11464 0.1251 0.22927 0.18765 0.34391 0.04669 0.12036 0.10444 0.23699 0.14007 0.36108 0.11292 0.39332 0.10426 0.82402-0.0026 1.2171-0.12657 0.46592-0.23753 0.60214-0.4753 1.0348-0.34042 0.46221-0.45497 0.66553-0.88966 1.0567-0.17733 0.15957-0.37596 0.2938-0.56686 0.43685-0.1287 0.09645-0.75994 0.56587-0.95064 0.65067-0.14003 0.06228-0.29663 0.07718-0.44494 0.11577l0.018427 0.0093v0c0.14829-0.038542 0.2962-0.078572 0.44486-0.11563 0.54002-0.1345 0.78331-0.14797 1.2841-0.43052 0.62332-0.35165 1.0952-0.89606 1.5227-1.456 0.24126-0.39248 0.40038-0.57852 0.51235-1.0235 0.15703-0.62398-0.07482-1.1401-0.34434-1.6861-0.05724-0.1129-0.11448-0.2258-0.17172-0.33871-0.05471-0.10369-0.11075-0.20671-0.16416-0.31108-0.11534-0.2254-0.25147-0.47152-0.23143-0.73601 5e-3 -0.06625 0.03196-0.12898 0.04795-0.19348 0.04272-0.05711 0.07714-0.1215 0.12819-0.17131 0.20951-0.20438 0.52873-0.30573 0.81583-0.24479 0.05904 0.01253 0.11384 0.04014 0.17077 0.06023 0.03128 0.01654 0.40332 0.23561 0.0092-0.07993-0.03847-0.03079 0.05938 0.07866 0.0884 0.1185 0.05325 0.07311 0.07842 0.09597 0.10255 0.17638 0.0057 0.01898 0.0062 0.03914 0.0094 0.0587l0.21888 0.13292z" fill="#f00" stroke-linecap="round" stroke-linejoin="round" stroke-width=".72746"/>
 </g>
 <g display="none">
  <path d="m19.454 9.9792c0.037372-0.15971-0.020466-0.18785-0.13284-0.2917-0.4506-0.41642-0.24123-0.27905-0.56293-0.46554-0.06419-0.015841-0.12683-0.040391-0.19256-0.047522-0.29908-0.032448-0.62709 0.079911-0.84656 0.28456-0.05781 0.053907-0.10129 0.12138-0.15194 0.18207-0.02702 0.076036-0.06858 0.14838-0.08105 0.22811-0.04691 0.29982 0.11842 0.5866 0.25681 0.83641 0.0615 0.11101 0.12944 0.21833 0.19416 0.32749 0.06499 0.11912 0.12999 0.23824 0.19498 0.35736 0.04852 0.12506 0.10853 0.24626 0.14554 0.3752 0.11734 0.4087 0.10833 0.85625-0.0026 1.2647-0.13152 0.48414-0.24682 0.62569-0.49389 1.0753-0.35373 0.48028-0.47276 0.69155-0.92445 1.098-0.18426 0.16581-0.39066 0.30529-0.58902 0.45393-0.13374 0.10022-0.78965 0.58799-0.98781 0.67612-0.1455 0.06471-0.30823 0.0802-0.46234 0.1203l0.01915 0.0097v0c0.15409-0.04005 0.30778-0.08165 0.46226-0.12014 0.56114-0.13982 0.81394-0.15381 1.3343-0.4474 0.64769-0.3654 1.138-0.9311 1.5822-1.513 0.2507-0.40783 0.41604-0.60115 0.53239-1.0635 0.16316-0.64838-0.07774-1.1847-0.35781-1.7521-0.05948-0.11732-0.11896-0.23463-0.17843-0.35195-0.05686-0.10775-0.11508-0.21479-0.17058-0.32325-0.11985-0.23421-0.26131-0.48995-0.24048-0.76479 0.0052-0.06885 0.03322-0.13403 0.04983-0.20104 0.0444-0.059336 0.08016-0.12626 0.1332-0.17801 0.2177-0.21238 0.5494-0.31769 0.84773-0.25436 0.06135 0.013024 0.1183 0.041716 0.17745 0.062575 0.0325 0.017178 0.41909 0.24483 0.0096-0.083056-0.03997-0.032004 0.0617 0.081737 0.09185 0.12312 0.05533 0.075968 0.08149 0.099729 0.10656 0.18328 0.0059 0.019725 0.0065 0.040666 0.0098 0.060999l0.22744 0.13812z" fill="#0f0" stroke-linecap="round" stroke-linejoin="round" stroke-width=".75591"/>
 </g>
 <g fill="#ff0">
  <path d="m21.722 12.901 0.10674 0.11068 0.15169-0.02518-0.07228 0.13571 0.07082 0.13649-0.15141-0.02681-0.10792 0.10953-0.02129-0.15228-0.13752-0.06879 0.13825-0.06731z"/>
  <path d="m11.085 12.015c-13.679 10.321 15.734 3.9644-1.3996 4.2743-17.133 0.30994 12.49 5.599-1.5533-4.2209-14.043-9.8199 1.0916 16.189-4.4976-0.010289-5.5892-16.199-1.4654 13.609 3.5343-2.7816 4.9997-16.39-15.059 6.0407-1.3801-4.2807 13.679-10.321-13.396 2.8117 3.7376 2.5018 17.133-0.30994-10.399-12.455 3.6447-2.6353 14.043 9.8199-6.8136-11.871-1.2243 4.3278 5.5892 16.199 8.6323-13.738 3.6326 2.652-4.9997 16.39 9.1846-10.148-4.4943 0.17295z"/>
 </g>
</svg>
