<?xml version="1.0" encoding="UTF-8" standalone="no"?>
<svg
   xmlns:dc="http://purl.org/dc/elements/1.1/"
   xmlns:cc="http://creativecommons.org/ns#"
   xmlns:rdf="http://www.w3.org/1999/02/22-rdf-syntax-ns#"
   xmlns:svg="http://www.w3.org/2000/svg"
   xmlns="http://www.w3.org/2000/svg"
   xmlns:sodipodi="http://sodipodi.sourceforge.net/DTD/sodipodi-0.dtd"
   xmlns:inkscape="http://www.inkscape.org/namespaces/inkscape"
   inkscape:export-ydpi="1293.4736"
   inkscape:export-xdpi="1293.4736"
   inkscape:export-filename="d:\Users\Robert_2\IdeaProjects\CorpoAssist\CorpoAssist\assets\icon.png"
   sodipodi:docname="icon.svg"
   inkscape:version="1.0 (4035a4fb49, 2020-05-01)"
   width="19.0px"
   height="19.0px"
   viewBox="0 0 19.0 19.0"
   version="1.1"
   id="SVGRoot">
  <defs
     id="defs833" />
  <sodipodi:namedview
     inkscape:snap-global="false"
     inkscape:window-maximized="0"
     inkscape:window-y="0"
     inkscape:window-x="1998"
     inkscape:window-height="1041"
     inkscape:window-width="1570"
     showgrid="true"
     inkscape:document-rotation="0"
     inkscape:current-layer="layer5"
     inkscape:document-units="px"
     inkscape:cy="8.1080466"
     inkscape:cx="8.6720403"
     inkscape:zoom="31.678384"
     inkscape:pageshadow="2"
     inkscape:pageopacity="0.0"
     borderopacity="1.0"
     bordercolor="#666666"
     pagecolor="#ffffff"
     id="base">
    <inkscape:grid
       type="xygrid"
       id="grid1403" />
  </sodipodi:namedview>
  <metadata
     id="metadata836">
    <rdf:RDF>
      <cc:Work
         rdf:about="">
        <dc:format>image/svg+xml</dc:format>
        <dc:type
           rdf:resource="http://purl.org/dc/dcmitype/StillImage" />
        <dc:title></dc:title>
      </cc:Work>
    </rdf:RDF>
  </metadata>
  <g
     style="display:inline"
     inkscape:label="Tło 1"
     id="layer6"
     inkscape:groupmode="layer">
    <rect
       y="-0.044585098"
       x="-0.37978452"
       height="19.267096"
       width="19.836363"
       id="rect3655"
       style="fill:#008000;fill-opacity:1;stroke:#1b571f;stroke-width:0.755906;stroke-linecap:round;stroke-linejoin:round;stroke-opacity:1" />
  </g>
  <g
     style="display:none"
     inkscape:label="Tło 2"
     id="layer7"
     inkscape:groupmode="layer">
    <rect
       y="0.49843052"
       x="0.51172203"
       height="18.09338"
       width="18.059605"
       id="rect3727"
       style="fill:#008000;fill-opacity:1;stroke:none;stroke-width:0.755906;stroke-linecap:round;stroke-linejoin:round;stroke-opacity:1" />
  </g>
  <g
     id="layer1"
     inkscape:groupmode="layer"
     inkscape:label="C" />
  <g
     inkscape:label="A"
     id="layer2"
     inkscape:groupmode="layer" />
  <g
     style="display:none"
     inkscape:label="S"
     id="layer3"
     inkscape:groupmode="layer">
    <path
       d="m 11.742877,13.052905 c 0.03596,-0.153704 -0.01971,-0.180779 -0.12784,-0.280719 -0.433646,-0.400746 -0.232149,-0.268549 -0.541746,-0.44802 -0.06178,-0.01524 -0.122055,-0.03887 -0.185314,-0.04574 -0.287829,-0.03123 -0.603494,0.0769 -0.814706,0.27385 -0.05564,0.05188 -0.09747,0.116811 -0.146217,0.175219 -0.02601,0.07318 -0.066,0.142799 -0.078,0.219522 -0.04514,0.288542 0.113963,0.564521 0.247149,0.804931 0.05919,0.106824 0.12457,0.210109 0.186856,0.315164 0.06255,0.114636 0.125098,0.229273 0.187647,0.343911 0.04669,0.120356 0.10444,0.236992 0.140068,0.361075 0.112924,0.393315 0.104257,0.824025 -0.0026,1.217115 -0.126571,0.46592 -0.237534,0.602141 -0.475303,1.034802 -0.340422,0.462208 -0.454966,0.665528 -0.889665,1.05668 -0.177331,0.159566 -0.3759582,0.293798 -0.5668594,0.43685 -0.128704,0.09645 -0.7599374,0.565867 -0.9506382,0.650674 -0.1400293,0.06228 -0.2966276,0.07718 -0.4449408,0.115772 0,0 0.018427,0.0093 0.018427,0.0093 v 0 C 7.4474827,19.254749 7.59539,19.214719 7.7440585,19.177664 8.2840822,19.04316 8.5273677,19.02969 9.02819,18.747147 c 0.623316,-0.351648 1.095203,-0.896058 1.522682,-1.456026 0.241262,-0.392481 0.400381,-0.578525 0.512354,-1.023479 0.157026,-0.62398 -0.07482,-1.140115 -0.344343,-1.686146 -0.05724,-0.112899 -0.114477,-0.225803 -0.171718,-0.338706 -0.05471,-0.103694 -0.110748,-0.206711 -0.164162,-0.311085 -0.115344,-0.2254 -0.251473,-0.471516 -0.231432,-0.736008 0.005,-0.06625 0.03196,-0.128985 0.04795,-0.193477 0.04272,-0.05711 0.07714,-0.121505 0.128192,-0.17131 0.20951,-0.204382 0.52873,-0.305731 0.81583,-0.244787 0.05904,0.01253 0.113841,0.04014 0.17077,0.06023 0.03128,0.01654 0.403323,0.235614 0.0092,-0.07993 -0.03847,-0.03079 0.05938,0.07866 0.0884,0.118497 0.05325,0.07311 0.07842,0.09597 0.102546,0.17638 0.0057,0.01898 0.0062,0.03914 0.0094,0.0587 0,0 0.218877,0.132919 0.218877,0.132919 z"
       id="path1580"
       style="fill:#ff0000;fill-opacity:1;stroke-width:0.72746;stroke-linecap:round;stroke-linejoin:round" />
  </g>
  <g
     style="display:none"
     inkscape:label="S 1"
     id="layer4"
     inkscape:groupmode="layer">
    <path
       d="M 19.453608,9.9792282 C 19.49098,9.8195142 19.433142,9.7913787 19.320769,9.6875315 18.870166,9.2711136 19.079542,9.4084808 18.757838,9.2219936 c -0.06419,-0.015841 -0.126833,-0.040391 -0.192559,-0.047522 -0.299085,-0.032448 -0.627093,0.079911 -0.846565,0.2845563 -0.05781,0.053907 -0.10129,0.1213813 -0.151935,0.182072 -0.02702,0.076036 -0.06858,0.1483834 -0.08105,0.2281065 -0.04691,0.2998236 0.118419,0.5865956 0.256814,0.8364056 0.0615,0.11101 0.129441,0.218327 0.194162,0.327491 0.06499,0.119119 0.12999,0.238238 0.194985,0.357358 0.04852,0.125065 0.108526,0.246259 0.145545,0.375195 0.117341,0.408695 0.108332,0.856247 -0.0026,1.264709 -0.13152,0.48414 -0.246822,0.625687 -0.49389,1.075266 -0.353733,0.480282 -0.472756,0.691554 -0.924454,1.098001 -0.184265,0.165806 -0.390659,0.305286 -0.589025,0.453933 -0.133737,0.100218 -0.789654,0.587994 -0.987812,0.676117 -0.145505,0.06471 -0.308227,0.0802 -0.46234,0.120297 0,0 0.01915,0.0097 0.01915,0.0097 v 0 c 0.154087,-0.04005 0.307778,-0.08165 0.46226,-0.120141 0.561136,-0.139816 0.813935,-0.153812 1.334341,-0.447403 0.647688,-0.3654 1.138028,-0.931098 1.582224,-1.512964 0.250696,-0.407828 0.416036,-0.601148 0.532388,-1.063501 0.163165,-0.648381 -0.07774,-1.184698 -0.35781,-1.752081 -0.05948,-0.117317 -0.118955,-0.234633 -0.178433,-0.35195 -0.05686,-0.10775 -0.115081,-0.214794 -0.170581,-0.323251 -0.119853,-0.234214 -0.261306,-0.489953 -0.240482,-0.76479 0.0052,-0.06885 0.03322,-0.1340281 0.04983,-0.2010423 0.0444,-0.059336 0.08016,-0.1262568 0.133205,-0.1780075 0.217701,-0.2123755 0.549405,-0.3176873 0.847732,-0.2543591 0.06135,0.013024 0.118298,0.041716 0.177447,0.062575 0.0325,0.017178 0.419094,0.2448277 0.0096,-0.083056 -0.03997,-0.032004 0.0617,0.081737 0.09185,0.1231247 0.05533,0.075968 0.08149,0.099729 0.106558,0.1832771 0.0059,0.019725 0.0065,0.040666 0.0098,0.060999 0,0 0.227435,0.1381166 0.227435,0.1381166 z"
       id="path1580-1"
       style="fill:#00ff00;fill-opacity:1;stroke-width:0.755906;stroke-linecap:round;stroke-linejoin:round" />
  </g>
  <g
     inkscape:label="Tło"
     id="layer5"
     inkscape:groupmode="layer">
    <path
       inkscape:transform-center-y="-0.0003851333"
       inkscape:transform-center-x="0.021744495"
       d="m 21.722385,12.901122 0.106735,0.110685 0.151689,-0.02518 -0.07228,0.135714 0.07082,0.136486 -0.151409,-0.02681 -0.107921,0.109529 -0.02129,-0.152283 -0.137518,-0.06879 0.138251,-0.06731 z"
       inkscape:randomized="0"
       inkscape:rounded="0"
       inkscape:flatsided="false"
       sodipodi:arg2="-1.2512545"
       sodipodi:arg1="-1.8795731"
       sodipodi:r2="0.11577522"
       sodipodi:r1="0.23155043"
       sodipodi:cy="13.121721"
       sodipodi:cx="21.792751"
       sodipodi:sides="5"
       id="path3652"
       style="fill:#ffff00;fill-opacity:1;stroke:none;stroke-width:0.755906;stroke-linecap:round;stroke-linejoin:round;stroke-opacity:1"
       sodipodi:type="star" />
    <path
       inkscape:transform-center-y="-0.60370075"
       inkscape:transform-center-x="0.037424014"
       d="M 11.030305,12.306995 C -3.5524799,23.310429 27.803565,16.533345 9.5381876,16.863763 -8.72719,17.194182 22.853453,22.832748 7.882237,12.363943 -7.0889788,1.8951382 9.0459613,29.622275 3.087403,12.352974 -2.8711556,-4.9163279 1.5252044,26.861062 6.8552695,9.3875501 12.185334,-8.0859608 -9.1987687,15.827436 5.3840168,4.8240022 19.966803,-6.1794313 -8.8967406,7.8215088 9.3686369,7.49109 27.634014,7.1606711 -1.7170287,-5.7871736 13.254187,4.6816317 28.225403,15.150437 5.9903919,-7.9738953 11.948951,9.2954061 17.90751,26.564707 21.151671,-5.3508976 15.821606,12.122613 10.49154,29.596124 25.613091,1.3035608 11.030305,12.306995 Z"
       inkscape:randomized="0"
       inkscape:rounded="3.81"
       inkscape:flatsided="false"
       sodipodi:arg2="1.5527084"
       sodipodi:arg1="0.9243899"
       sodipodi:r2="6.6958618"
       sodipodi:r1="2.678345"
       sodipodi:cy="10.168997"
       sodipodi:cx="9.4170799"
       sodipodi:sides="5"
       id="path3661"
       style="fill:#ffff00;fill-opacity:1;stroke:none;stroke-width:1.27426;stroke-linecap:round;stroke-linejoin:round;stroke-opacity:1"
       sodipodi:type="star" />
  </g>
</svg>
